<svg width="83" height="44" viewBox="0 0 83 44" fill="none" xmlns="http://www.w3.org/2000/svg">
<path d="M19.7557 17.248C27.5857 19.394 35.6477 21.946 35.6477 30.82C35.6477 38.766 29.6157 43.928 19.2337 43.928C8.44567 43.928 0.325666 38.592 0.325666 29.37H10.7657C10.7657 33.778 14.5937 35.402 19.2337 35.402C23.1197 35.402 25.2077 33.894 25.2077 31.806C25.2077 28.5 20.7417 27.746 14.8837 26.006C7.74967 23.918 1.48567 20.844 1.48567 13.188C1.48567 4.14 8.56167 0.602 17.4937 0.602C27.1797 0.602 34.7777 5.706 35.0677 14.116H24.6277C24.1637 10.984 21.4957 9.128 17.4937 9.128C14.3617 9.128 11.9257 10.114 11.9257 12.434C11.9257 14.986 14.5357 15.798 19.7557 17.248ZM48.5504 43V1.53H68.6764C77.3184 1.53 82.7124 6.054 82.7124 14.754C82.7124 23.454 77.3184 27.978 68.6764 27.978H58.9904V43H48.5504ZM58.9904 10.056V19.452H66.4724C70.0684 19.452 72.2724 18.234 72.2724 14.754C72.2724 11.274 70.0684 10.056 66.4724 10.056H58.9904Z" fill="#1E1E1E"/>
</svg>
