<svg width="1368" height="1369" viewBox="0 0 1368 1369" fill="none" xmlns="http://www.w3.org/2000/svg">
<path d="M308.86 1368.87C206.48 1368.87 103.86 1368.74 2.02 1368.38H0V1366.38C0.69 1322.65 3.25 1276.82 25.85 1239.38C35.85 1222.84 49.92 1210.04 63.53 1197.67C65.3767 1195.99 67.2233 1194.31 69.07 1192.62C117.23 1148.4 123.91 1088.93 123.96 1031.24C124.09 904.31 103.23 775 83 650C78.65 623 74.15 595.12 70 567.86C64 528.97 57.5 489.21 51.19 450.76C27.1 303.93 2.18 152.15 0 2.4104V0.4104H2C236.55 1.2404 475 0.8404 705.67 0.4104C922.13 0.0804 1145.92 -0.2896 1366 0.3504H1368V2.3504C1367.18 42.7604 1362.63 94.5804 1334.48 137.03C1321.27 156.95 1303.7 173.18 1286.7 188.88C1283.31 192.014 1279.92 195.157 1276.55 198.31C1229.21 242.87 1207.13 298.83 1207.05 374.43C1206.99 437.56 1216.78 501.59 1227.69 567.09C1242.62 656.73 1261.18 745.39 1279.12 831.09C1282.3 846.284 1285.49 861.477 1288.69 876.67C1304.36 951.2 1320.57 1028.28 1334.78 1104.43C1351.99 1196.69 1366.38 1280.06 1368 1366.23V1368.23H1366C1145.91 1367.59 922.12 1367.96 705.7 1368.31C575.23 1368.65 442.23 1368.87 308.86 1368.87ZM4.06 1364.39C237.96 1365.21 475.73 1364.81 705.71 1364.39C921.46 1364.04 1144.53 1363.67 1363.98 1364.3C1362.17 1279.17 1347.91 1196.55 1330.87 1105.2C1316.66 1029.09 1300.46 952.05 1284.8 877.53C1281.6 862.337 1278.41 847.144 1275.23 831.95C1257.23 746.17 1238.71 657.47 1223.77 567.75C1212.83 502.07 1203.01 437.87 1203.07 374.42C1203.15 297.65 1225.63 240.76 1273.83 195.42C1277.2 192.25 1280.61 189.1 1284.01 185.96C1300.83 170.42 1318.22 154.36 1331.17 134.84C1358.28 94.0004 1363.05 43.9004 1364 4.3404C1144.56 3.7104 921.48 4.0804 705.73 4.4304C475.73 4.8104 237.99 5.2104 4.08 4.4304C6.43 153.21 31.2 304.13 55.16 450.11C61.45 488.52 68 528.29 74 567.21C78.18 594.45 82.68 622.34 87 649.31C107.21 774.52 128.1 904 128 1031.25C128 1068.38 124.8 1095.81 117.73 1120.19C108.89 1150.66 93.87 1175.32 71.81 1195.57C69.97 1197.27 68.11 1198.95 66.26 1200.63C52.26 1213.37 39 1225.4 29.31 1241.45C7.56 1277.43 4.79 1321.82 4.06 1364.39Z" fill="#CDC1B0"/>
<path d="M48 1277.29C36.4 1277.29 24.73 1276.76 13 1275.6L13.39 1271.6C87.83 1278.96 158.97 1260.7 227.77 1243.04C272.06 1231.67 317.87 1219.92 364.59 1214.87C388.94 1212.24 414.8 1212.01 443.65 1214.17C458.29 1215.27 473.36 1214.77 487.93 1214.29C502.08 1213.82 516.71 1213.29 531.13 1214.29C581.23 1217.6 631.4 1226.99 679.92 1236.07L689.92 1237.95C738.69 1247.08 789.13 1256.52 839.39 1259.89C855.97 1261 872.71 1260.52 888.9 1260.04C899.46 1259.74 910.38 1259.42 921.19 1259.54C928.74 1259.63 936.35 1259.84 943.71 1260.04C963.8 1260.58 984.59 1261.14 1005.3 1259.26C1050.94 1255.13 1096.11 1245.49 1139.8 1236.17C1208.04 1221.61 1278.61 1206.55 1351.8 1212.46L1351.48 1216.46C1278.92 1210.6 1208.64 1225.6 1140.69 1240.1C1096.88 1249.44 1051.59 1259.1 1005.69 1263.27C984.69 1265.17 963.84 1264.6 943.63 1264.06C936.29 1263.86 928.7 1263.65 921.17 1263.56C910.44 1263.44 899.56 1263.75 889.04 1264.06C872.76 1264.53 855.92 1265.06 839.16 1263.9C788.65 1260.51 738.1 1251.05 689.16 1241.9L679.16 1240.03C630.76 1230.96 580.71 1221.59 530.84 1218.3C516.63 1217.36 502.09 1217.84 488.04 1218.3C473.36 1218.79 458.19 1219.3 443.33 1218.18C414.73 1216.04 389.11 1216.26 365 1218.87C318.56 1223.87 272.9 1235.6 228.74 1246.94C170.43 1261.9 110.44 1277.29 48 1277.29Z" fill="#CDC1B0"/>
<path d="M44.7101 1225.77C43.0101 1225.77 41.3101 1225.77 39.6001 1225.7L39.7101 1221.7C120.82 1223.81 181.1 1174.29 239.38 1126.42C276.56 1095.87 315.02 1064.28 358.94 1045.63C406.31 1025.52 459.76 1023.42 522.34 1039.2C576.66 1052.91 630.48 1078.2 677.97 1100.54L688.51 1105.54L695.1 1108.63C793.78 1154.94 905.62 1207.42 1013.5 1167.85C1055.69 1152.38 1092.5 1126.16 1128.02 1100.85C1155.69 1081.12 1184.3 1060.72 1214.89 1045.94C1249.24 1029.33 1282.71 1021.63 1317.21 1022.35L1317.12 1026.35C1241.67 1024.75 1187.58 1063.29 1130.34 1104.1C1094.56 1129.6 1057.57 1155.98 1014.88 1171.64C966.03 1189.55 911.98 1190.39 849.62 1174.19C795.25 1160 743.47 1135.7 693.4 1112.2L686.81 1109.11L676.26 1104.16C582.19 1059.93 465.12 1004.89 360.5 1049.31C317.11 1067.74 278.88 1099.14 241.92 1129.51C212.52 1153.66 182.12 1178.63 149.42 1196.78C114.32 1216.26 80.0001 1225.77 44.7101 1225.77Z" fill="#CDC1B0"/>
<path d="M72.9302 1194L72.4302 1190C147.27 1180.43 191.77 1107.36 227.52 1048.65L230.16 1044.31C237.76 1031.84 245.35 1018.78 252.7 1006.15C280.7 958.04 309.6 908.28 350.31 870.23C395.13 828.35 446.67 822.86 512.51 852.96C570.75 879.59 623.01 919.36 673.51 957.82C679.717 962.607 685.904 967.334 692.07 972C698.237 976.667 704.43 981.37 710.65 986.11C760.99 1024.42 813.05 1064.03 870.88 1090.48C932.04 1118.48 979.61 1116.4 1020.6 1084.08C1056.42 1055.82 1082.6 1010.7 1107.91 967.08C1148.51 897.08 1190.5 824.73 1274.08 815.8L1274.5 819.8C1192.94 828.51 1151.5 899.99 1111.37 969.11C1085.87 1013.11 1059.5 1058.52 1023.07 1087.25C1000.65 1104.93 975.34 1113.9 947.84 1113.9H947.67C923.89 1113.9 898.23 1107.41 869.22 1094.14C810.98 1067.52 758.74 1027.76 708.22 989.32C702.02 984.6 695.833 979.904 689.66 975.23C683.487 970.557 677.307 965.864 671.12 961.15C620.76 922.83 568.68 883.15 510.85 856.75C446.67 827.34 396.53 832.6 353 873.23C312.72 910.88 283.94 960.38 256.11 1008.23C248.76 1020.87 241.16 1033.95 233.54 1046.45L230.9 1050.79C212.77 1080.55 192.22 1114.29 167.02 1141.26C138 1172.41 107.17 1189.67 72.9302 1194Z" fill="#CDC1B0"/>
<path d="M103.94 1156L102.94 1152.13C177.94 1132.35 211.12 1036.03 235.35 965.71C238.23 957.34 240.95 949.44 243.65 941.93C250.17 923.73 256.52 904.75 262.65 886.41C284.46 821.23 307.01 753.84 344.88 696.68C368.01 661.77 390.98 642.81 415.11 638.68C446.01 633.42 484.34 657.83 504.93 670.94C566.98 710.44 620.41 764.04 672.08 815.87C679.68 823.5 687.55 831.39 695.27 839.05C702.99 846.71 710.87 854.63 718.48 862.27C770 914 823.23 967.38 884.92 1006.65C904.7 1019.25 941.51 1042.65 971.92 1038.53C992.31 1035.73 1011.92 1021.89 1030.13 997.38C1064.36 951.38 1081.13 893.09 1097.28 836.73C1101.66 821.49 1106.19 805.73 1110.93 790.73C1112.1 787.04 1113.29 783.25 1114.49 779.4C1124.62 747.05 1136.11 710.4 1154.22 679.4C1175.37 643.25 1201.46 622.14 1233.97 614.88L1234.84 618.79C1164.03 634.6 1138.68 715.54 1118.31 780.58C1117.1 784.43 1115.92 788.22 1114.74 791.92C1110.02 806.82 1105.5 822.56 1101.13 837.78C1084.84 894.48 1068 953.1 1033.33 999.71C1014.44 1025.11 993.96 1039.48 972.47 1042.43C940.64 1046.78 903.02 1022.84 882.81 1009.97C820.75 970.45 767.34 916.87 715.68 865.05C708.07 857.42 700.2 849.52 692.48 841.85C684.76 834.18 676.88 826.29 669.27 818.65C617.72 767 564.45 713.6 502.77 674.33C482.63 661.51 445.14 637.64 415.77 642.64C392.77 646.55 370.69 664.95 348.2 698.89C310.62 755.61 288.2 822.75 266.44 887.67C260.29 906.04 253.93 925.03 247.39 943.27C244.71 950.76 241.99 958.66 239.11 967.01C214.59 1038.19 181 1135.67 103.94 1156Z" fill="#CDC1B0"/>
<path d="M123.6 1087L122.6 1083.13C162.6 1072.73 183.26 1037.88 199.6 1001.77C223 950.271 237.19 894.001 250.94 839.501C257.08 815.161 262.77 789.711 268.26 765.091C286.26 684.301 304.94 600.77 344.5 529.35C365.89 490.73 388.22 471.031 412.75 469.141C445.75 466.601 481.42 493.411 502.75 509.431C566.59 557.431 620.28 619.891 672.2 680.321C680.42 689.891 688.92 699.791 697.27 709.401C705.62 719.011 714.18 728.971 722.42 738.571C774.17 798.821 827.68 861.11 891.16 908.79C910.3 923.16 945.93 949.911 978.48 948.331C1007.81 946.901 1028.2 917.761 1037.74 900.521C1069.68 842.821 1080.44 773.281 1090.85 706.021C1094.1 685.021 1097.16 665.261 1100.85 645.681C1102 639.591 1103.15 633.1 1104.36 626.22C1110.36 592.44 1117.75 550.4 1132.84 514.97C1150.72 472.97 1175.44 449.031 1208.41 441.771L1209.27 445.681C1177.65 452.681 1153.86 475.821 1136.52 516.531C1121.61 551.531 1114.23 593.34 1108.3 626.91C1107.08 633.8 1105.94 640.311 1104.78 646.421C1101.11 665.931 1098.05 685.701 1094.78 706.641C1084.31 774.231 1073.49 844.141 1041.21 902.461C1031.27 920.461 1009.92 950.801 978.64 952.321C948.77 953.761 917.77 933.801 888.73 911.991C824.9 864.051 771.25 801.591 719.36 741.181C711.11 731.581 702.59 721.661 694.22 712.021C685.85 702.381 677.36 692.511 669.13 682.931C617.35 622.651 563.81 560.321 500.32 512.631C479.45 496.941 444.51 470.691 413.04 473.131C390 474.911 368.69 493.94 348 531.29C308.72 602.201 290.14 685.451 272.17 766.001C266.66 790.641 260.98 816.131 254.84 840.431C241 895.111 226.76 951.601 203.26 1003.46C186.48 1040.47 165.22 1076.22 123.6 1087Z" fill="#CDC1B0"/>
<path d="M123.6 963L122.6 959.13C162.6 948.73 183.26 913.881 199.6 877.771C223 826.271 237.19 770.001 250.94 715.501C257.08 691.161 262.77 665.711 268.26 641.091C286.26 560.301 304.94 476.771 344.5 405.351C365.89 366.731 388.22 347.031 412.75 345.141C445.75 342.591 481.42 369.411 502.75 385.431C566.59 433.431 620.28 495.891 672.2 556.321C680.42 565.891 688.92 575.791 697.27 585.401C705.62 595.011 714.18 604.971 722.42 614.571C774.17 674.821 827.68 737.11 891.16 784.79C910.3 799.16 945.93 825.921 978.48 824.331C1007.81 822.901 1028.2 793.761 1037.74 776.521C1069.68 718.821 1080.44 649.281 1090.85 582.021C1094.1 561.021 1097.16 541.261 1100.85 521.681C1102 515.591 1103.15 509.101 1104.36 502.221C1110.36 468.441 1117.75 426.401 1132.84 390.971C1150.72 348.971 1175.44 325.031 1208.41 317.771L1209.27 321.681C1177.65 328.681 1153.86 351.821 1136.52 392.531C1121.61 427.531 1114.23 469.341 1108.3 502.911C1107.08 509.801 1105.94 516.311 1104.78 522.421C1101.11 541.931 1098.05 561.701 1094.78 582.641C1084.31 650.231 1073.49 720.141 1041.21 778.461C1031.27 796.461 1009.92 826.801 978.64 828.321C948.77 829.771 917.77 809.801 888.73 787.991C824.9 740.051 771.25 677.591 719.36 617.181C711.11 607.581 702.59 597.661 694.22 588.021C685.85 578.381 677.36 568.511 669.13 558.931C617.35 498.651 563.81 436.321 500.32 388.631C479.45 372.941 444.51 346.681 413.04 349.131C390 350.911 368.69 369.941 348 407.291C308.72 478.201 290.14 561.451 272.17 642.001C266.66 666.641 260.98 692.131 254.84 716.431C241 771.111 226.76 827.601 203.26 879.461C186.48 916.471 165.22 952.22 123.6 963Z" fill="#CDC1B0"/>
<path d="M103.94 784L102.94 780.13C177.94 760.35 211.12 664.03 235.35 593.71C238.23 585.34 240.95 577.44 243.65 569.93C250.17 551.73 256.52 532.75 262.65 514.41C284.46 449.23 307.01 381.84 344.88 324.68C368.01 289.77 390.98 270.81 415.11 266.68C446.01 261.42 484.34 285.83 504.93 298.94C566.98 338.44 620.41 392.04 672.08 443.87C679.68 451.5 687.55 459.39 695.27 467.05C702.99 474.71 710.87 482.63 718.48 490.27C770 542 823.23 595.38 884.92 634.65C904.7 647.25 941.51 670.65 971.92 666.53C992.31 663.73 1011.92 649.89 1030.13 625.38C1064.36 579.38 1081.13 521.09 1097.28 464.73C1101.66 449.49 1106.19 433.73 1110.93 418.73C1112.1 415.04 1113.29 411.25 1114.49 407.4C1124.62 375.05 1136.11 338.4 1154.22 307.4C1175.37 271.25 1201.46 250.14 1233.97 242.88L1234.84 246.79C1164.03 262.6 1138.68 343.54 1118.31 408.58C1117.1 412.43 1115.92 416.22 1114.74 419.92C1110.02 434.82 1105.5 450.56 1101.13 465.78C1084.84 522.48 1068 581.1 1033.33 627.71C1014.44 653.11 993.96 667.48 972.47 670.43C940.6 674.84 903 650.9 882.77 638C820.71 598.48 767.3 544.9 715.64 493.08C708.03 485.45 700.16 477.55 692.44 469.88C684.72 462.21 676.84 454.32 669.23 446.68C617.72 395 564.45 341.6 502.77 302.33C482.63 289.51 445.14 265.63 415.77 270.64C392.77 274.55 370.69 292.95 348.2 326.89C310.62 383.61 288.2 450.75 266.44 515.67C260.29 534.04 253.93 553.03 247.39 571.27C244.71 578.76 241.99 586.66 239.11 595.01C214.59 666.19 181 763.67 103.94 784Z" fill="#CDC1B0"/>
<path d="M72.9302 574L72.4302 570C147.27 560.43 191.77 487.36 227.52 428.65L230.16 424.311C237.76 411.841 245.35 398.78 252.7 386.15C280.7 338.04 309.6 288.28 350.31 250.23C395.13 208.35 446.67 202.861 512.51 232.961C570.75 259.591 623.01 299.361 673.51 337.821C679.717 342.607 685.904 347.334 692.07 352.001C698.237 356.667 704.43 361.37 710.65 366.11C761 404.38 813.05 444 870.88 470.44C932.04 498.44 979.61 496.361 1020.6 464.041C1056.42 435.781 1082.6 390.661 1107.91 347.041C1148.51 277.041 1190.5 204.69 1274.08 195.76L1274.5 199.76C1192.94 208.47 1151.5 279.951 1111.37 349.071C1085.87 393.071 1059.5 438.481 1023.07 467.211C1000.65 484.891 975.34 493.86 947.84 493.86H947.67C923.89 493.86 898.23 487.371 869.22 474.101C810.98 447.481 758.74 407.721 708.22 369.281C702.02 364.561 695.833 359.864 689.66 355.191C683.487 350.517 677.307 345.824 671.12 341.11C620.76 302.79 568.68 263.161 510.85 236.711C446.67 207.341 396.53 212.6 353 253.23C312.72 290.881 283.94 340.381 256.11 388.231C248.76 400.871 241.16 413.951 233.54 426.451L230.9 430.791C212.77 460.551 192.22 494.29 167.02 521.26C138 552.41 107.17 569.67 72.9302 574Z" fill="#CDC1B0"/>
<path d="M44.7101 357.77C43.0101 357.77 41.3101 357.77 39.6001 357.7L39.7101 353.7C120.82 355.79 181.1 306.3 239.38 258.42C276.56 227.87 315.02 196.28 358.94 177.63C406.31 157.52 459.76 155.42 522.34 171.2C576.66 184.91 630.48 210.2 677.97 232.54L688.51 237.54L695.1 240.63C793.78 286.94 905.62 339.42 1013.5 299.85C1055.69 284.38 1092.5 258.16 1128.02 232.85C1155.69 213.12 1184.3 192.72 1214.89 177.94C1249.24 161.33 1282.71 153.62 1317.21 154.35L1317.12 158.35C1241.67 156.74 1187.58 195.29 1130.34 236.1C1094.56 261.6 1057.57 287.98 1014.88 303.64C966 321.47 912 322.31 849.62 306.11C795.25 292 743.47 267.7 693.4 244.2L686.81 241.11L676.26 236.11C582.19 191.88 465.12 136.84 360.5 181.26C317.11 199.69 278.88 231.09 241.92 261.46C212.52 285.61 182.12 310.58 149.42 328.73C114.32 348.26 80.0001 357.77 44.7101 357.77Z" fill="#CDC1B0"/>
<path d="M48 161.29C36.4 161.29 24.73 160.76 13 159.6L13.39 155.6C87.83 162.96 158.97 144.7 227.77 127.04C272.06 115.67 317.87 103.92 364.59 98.8705C388.94 96.2405 414.8 96.0105 443.65 98.1705C458.29 99.2705 473.36 98.7705 487.93 98.2905C502.08 97.8205 516.71 97.2905 531.13 98.2905C581.23 101.6 631.4 110.99 679.92 120.07L689.92 121.95C738.69 131.08 789.13 140.52 839.39 143.89C855.97 145 872.71 144.52 888.9 144.04C899.46 143.74 910.38 143.42 921.19 143.54C928.74 143.63 936.35 143.84 943.71 144.04C963.8 144.58 984.59 145.14 1005.3 143.26C1050.94 139.13 1096.11 129.49 1139.8 120.17C1208.04 105.61 1278.61 90.5505 1351.8 96.4605L1351.48 100.46C1278.92 94.6105 1208.64 109.6 1140.69 124.1C1096.88 133.44 1051.59 143.1 1005.69 147.27C984.69 149.17 963.84 148.6 943.63 148.06C936.29 147.86 928.7 147.65 921.17 147.56C910.44 147.43 899.56 147.76 889.04 148.06C872.76 148.53 855.92 149.06 839.16 147.9C788.65 144.51 738.1 135.05 689.16 125.9L679.16 124.03C630.76 114.96 580.71 105.59 530.84 102.3C516.63 101.36 502.09 101.84 488.04 102.3C473.36 102.79 458.19 103.3 443.33 102.18C414.73 100.04 389.11 100.26 365 102.87C318.56 107.87 272.9 119.6 228.74 130.94C170.43 145.9 110.44 161.29 48 161.29Z" fill="#CDC1B0"/>
<path d="M1240 1366.3C1234.84 1229.15 1210.71 1091.09 1187.36 957.58C1183.27 934.17 1179.04 909.96 1174.98 886.19C1170.87 862.07 1166.43 837.29 1162.13 813.33C1142.02 701.19 1121.23 585.24 1121.65 471.72C1121.89 404.43 1138.44 334.54 1173.73 251.77C1210.73 165.08 1236.09 89.4604 1240 2.13037L1244 2.31037C1240.07 90.2404 1214.54 166.25 1177.42 253.31C1142.35 335.58 1125.9 404.98 1125.66 471.71C1125.24 584.87 1146 700.64 1166.08 812.61C1170.37 836.61 1174.82 861.36 1178.94 885.5C1182.94 909.26 1187.22 933.5 1191.31 956.87C1214.68 1090.51 1238.84 1228.7 1244 1366.13L1240 1366.3Z" fill="#CDC1B0"/>
<path d="M1120 1366.41H1116C1116.45 1248.82 1108.31 1129.58 1100.43 1014.26C1092.76 901.95 1084.82 785.82 1084.83 671.26C1084.83 560.91 1092.76 449.14 1100.43 341.04C1108.29 230.18 1116.43 115.55 1116 2.45044H1120C1120.42 115.7 1112.29 230.45 1104.42 341.34C1096.76 449.34 1088.83 561.07 1088.83 671.28C1088.83 785.73 1096.75 901.79 1104.42 1014.03C1112.34 1129.36 1120.49 1248.67 1120 1366.41Z" fill="#CDC1B0"/>
<path d="M996.09 1366.59L992.09 1366.44C995.09 1286.91 1005.09 1206.52 1014.86 1128.77C1026.34 1037.14 1038.2 942.38 1038.48 848.65C1038.75 752.23 1031.54 653.78 1024.57 558.56C1022.29 527.47 1019.93 495.31 1017.88 463.79C1016.55 443.27 1015.21 422.744 1013.88 402.21C1005.25 271.3 996.33 135.93 992.13 2.57044L996.13 2.45044C1000.33 135.74 1009.25 271.07 1017.87 401.95C1019.2 422.484 1020.54 443.01 1021.87 463.53C1023.87 495.03 1026.28 527.18 1028.56 558.27C1035.56 653.56 1042.75 752.09 1042.48 848.66C1042.2 942.66 1030.32 1037.52 1018.83 1129.27C1009.11 1206.93 999.05 1287.23 996.09 1366.59Z" fill="#CDC1B0"/>
<path d="M872.05 1366.5L868.05 1366.43C869.82 1270 887.63 1179 903 1110.5C922.31 1024.2 931.34 951.38 931.43 881.35C931.57 768.59 920.37 653.84 909.54 542.87C907.61 523.09 905.61 502.64 903.72 482.57C901.36 457.57 898.89 432.21 896.5 407.65C883.56 275 870.22 137.86 868.05 2.50042L872.05 2.43042C874.22 137.64 887.54 274.7 900.43 407.26C902.82 431.82 905.29 457.26 907.65 482.19C909.54 502.26 911.54 522.7 913.47 542.48C924.31 653.54 935.47 768.39 935.38 881.35C935.29 951.69 926.23 1024.78 906.86 1111.35C891.58 1179.67 873.81 1270.38 872.05 1366.5Z" fill="#CDC1B0"/>
<path d="M748.05 1366.48H744.05C745.39 1267.48 753.15 1167.18 760.65 1070.17C768.88 963.801 777.38 853.821 777.45 745.341C777.54 614.591 768.94 481.85 760.63 353.49C753.19 238.49 745.49 119.66 744.05 2.49048H748.05C749.49 119.49 757.18 238.34 764.62 353.24C772.94 481.67 781.54 614.47 781.45 745.35C781.38 853.98 772.87 964.05 764.64 1070.49C757.14 1167.38 749.39 1267.63 748.05 1366.48Z" fill="#CDC1B0"/>
<path d="M620 1366.29C619 1263.71 617.37 1159.39 615.79 1058.51C613.18 891.98 610.49 719.79 610.59 550.451C610.65 445.381 613.13 338.561 615.54 235.26C617.31 158.89 619.15 79.9105 620 2.2605H624C623.16 80.0005 621.32 159.001 619.55 235.351C617.14 338.631 614.66 445.431 614.6 550.451C614.5 719.76 617.19 891.94 619.8 1058.45C621.38 1159.34 623.01 1263.66 624.01 1366.25L620 1366.29Z" fill="#CDC1B0"/>
<path d="M496 1366.29C494 1218.52 485.14 1068.39 476.54 923.201C466.68 756.501 456.47 584.12 456.67 414.39C456.75 342.77 466.74 271.39 476.39 202.39C485.52 137.17 495 69.7305 496 2.23047L500 2.29047C499 70.0005 489.49 137.6 480.35 202.94C470.72 271.82 460.75 343.05 460.67 414.39C460.47 584 470.67 756.321 480.54 922.961C489.13 1068.2 498 1218.38 500 1366.23L496 1366.29Z" fill="#CDC1B0"/>
<path d="M372 1366.23C368.95 1227.17 364.09 1085.82 359.4 949.13C358.58 925.33 357.767 901.527 356.96 877.72C355.6 837.59 353.96 796.72 352.3 757.22C348.3 658.62 344.08 556.67 344.3 456.55C344.51 373.81 351.6 289.99 358.44 208.93C364.19 141.2 370.1 71.1604 372 2.13037L376 2.24037C374.12 71.3804 368.2 141.48 362.47 209.24C355.63 290.24 348.55 373.96 348.34 456.53C348.08 556.53 352.26 658.47 356.34 757.03C357.96 796.55 359.63 837.41 361 877.55C361.8 901.35 362.614 925.154 363.44 948.96C368.13 1085.67 372.98 1227.03 376.04 1366.11L372 1366.23Z" fill="#CDC1B0"/>
<path d="M248 1366.32C247.76 1249.32 255.27 1130.75 262.53 1016.07C269.67 903.25 277.05 786.6 277.05 671.6C277.05 560.78 269.67 448.39 262.53 339.69C255.29 229.23 247.78 115 248 2.32031H252C251.76 114.88 259.26 229.04 266.52 339.43C273.67 448.19 281.06 560.65 281.05 671.6C281.05 786.73 273.66 903.44 266.52 1016.32C259.26 1130.94 251.76 1249.47 252 1366.32H248Z" fill="#CDC1B0"/>
<path d="M128.07 1366.6L124.07 1366.46C127.22 1273.98 151.69 1193.84 175.21 1127.65C203.42 1048.24 216.66 980.15 216.88 913.36C217.25 799.68 201.28 683.65 185.88 571.44C182.66 548.09 179.34 523.94 176.24 500.32C172.79 474.1 169.18 447.42 165.69 421.61C147.16 284.61 128 142.87 124.11 2.61049L128.11 2.50049C131.99 142.57 151.11 284.16 169.66 421.09C173.15 446.9 176.76 473.6 180.2 499.82C183.3 523.43 186.63 547.57 189.84 570.91C205.3 683.26 221.29 799.431 220.92 913.391C220.7 980.651 207.39 1049.16 179.02 1129.01C155.56 1194.89 131.2 1274.66 128.07 1366.6Z" fill="#CDC1B0"/>
</svg>
