<svg width="435" height="89" viewBox="0 0 435 89" fill="none" xmlns="http://www.w3.org/2000/svg">
<rect x="153" y="50" width="9" height="39" rx="4.5" fill="#EC5B2D"/>
<rect x="204" y="50" width="9" height="39" rx="4.5" fill="#EC5B2D"/>
<rect x="187" y="38" width="9" height="40" rx="4.5" fill="#EC5B2D"/>
<rect x="170" y="50" width="9" height="34" rx="4.5" fill="#EC5B2D"/>
<rect x="136" y="36" width="9" height="42" rx="4.5" fill="#EC5B2D"/>
<rect x="102" y="5" width="9" height="65" rx="4.5" fill="#EC5B2D"/>
<rect x="119" y="18" width="9" height="71" rx="4.5" fill="#EC5B2D"/>
<rect width="9" height="78" rx="4.5" transform="matrix(-1 0 0 1 94 0)" fill="#EC5B2D"/>
<rect width="9" height="39" rx="4.5" transform="matrix(-1 0 0 1 26 50)" fill="#EC5B2D"/>
<rect width="9" height="16" rx="4.5" transform="matrix(-1 0 0 1 9 68)" fill="#EC5B2D"/>
<rect width="9" height="32" rx="4.5" transform="matrix(-1 0 0 1 43 36)" fill="#EC5B2D"/>
<rect width="9" height="56" rx="4.5" transform="matrix(-1 0 0 1 77 5)" fill="#EC5B2D"/>
<rect width="9" height="58" rx="4.5" transform="matrix(-1 0 0 1 60 18)" fill="#EC5B2D"/>
<rect x="282" y="39" width="9" height="39" rx="4.5" transform="rotate(180 282 39)" fill="#EC5B2D"/>
<rect x="231" y="78" width="9" height="50" rx="4.5" transform="rotate(180 231 78)" fill="#EC5B2D"/>
<rect x="248" y="61" width="9" height="42" rx="4.5" transform="rotate(180 248 61)" fill="#EC5B2D"/>
<rect x="265" y="39" width="9" height="34" rx="4.5" transform="rotate(180 265 39)" fill="#EC5B2D"/>
<rect x="299" y="53" width="9" height="42" rx="4.5" transform="rotate(180 299 53)" fill="#EC5B2D"/>
<rect x="333" y="84" width="9" height="65" rx="4.5" transform="rotate(180 333 84)" fill="#EC5B2D"/>
<rect x="316" y="71" width="9" height="71" rx="4.5" transform="rotate(180 316 71)" fill="#EC5B2D"/>
<rect width="9" height="78" rx="4.5" transform="matrix(1 0 0 -1 341 89)" fill="#EC5B2D"/>
<rect width="9" height="39" rx="4.5" transform="matrix(1 0 0 -1 409 39)" fill="#EC5B2D"/>
<rect width="9" height="16" rx="4.5" transform="matrix(1 0 0 -1 426 21)" fill="#EC5B2D"/>
<rect width="9" height="32" rx="4.5" transform="matrix(1 0 0 -1 392 53)" fill="#EC5B2D"/>
<rect width="9" height="56" rx="4.5" transform="matrix(1 0 0 -1 358 84)" fill="#EC5B2D"/>
<rect width="9" height="58" rx="4.5" transform="matrix(1 0 0 -1 375 71)" fill="#EC5B2D"/>
</svg>
