<svg width="578" height="97" viewBox="0 0 578 97" fill="none" xmlns="http://www.w3.org/2000/svg">
<path d="M43.175 37.168L41.8368 41.9856L41.8451 41.9879L41.8534 41.9902L43.175 37.168ZM0.295 63.92V58.92H-4.705V63.92H0.295ZM23.335 63.92H28.335V58.92H23.335V63.92ZM32.423 56.496L33.8467 51.703L33.8371 51.7001L33.8275 51.6973L32.423 56.496ZM76.967 30.256V35.256H82.1424L81.964 30.0837L76.967 30.256ZM53.927 30.256L48.981 30.9887L49.6132 35.256H53.927V30.256ZM41.8534 41.9902C50.609 44.3898 58.5772 46.8051 64.399 50.7238C69.8499 54.393 73.247 59.2441 73.247 67.12H83.247C83.247 55.4119 77.7481 47.655 69.983 42.4281C62.5888 37.4509 53.021 34.6821 44.4966 32.3458L41.8534 41.9902ZM73.247 67.12C73.247 74.5136 70.4991 80.2707 65.5706 84.2822C60.5251 88.389 52.7071 91.048 42.023 91.048V101.048C54.2509 101.048 64.5449 98.011 71.8834 92.0378C79.3389 85.9693 83.247 77.2624 83.247 67.12H73.247ZM42.023 91.048C30.8749 91.048 21.5717 88.2828 15.1949 83.5892C8.9625 79.0018 5.295 72.4374 5.295 63.92H-4.705C-4.705 75.7546 0.587498 85.2542 9.26707 91.6428C17.8023 97.9252 29.3631 101.048 42.023 101.048V91.048ZM0.295 68.92H23.335V58.92H0.295V68.92ZM18.335 63.92C18.335 70.5303 21.3547 75.4539 26.1962 78.4685C30.7119 81.2801 36.4551 82.232 42.023 82.232V72.232C37.3509 72.232 33.7501 71.3919 31.4818 69.9795C29.5393 68.7701 28.335 67.0377 28.335 63.92H18.335ZM42.023 82.232C46.8654 82.232 51.2043 81.3065 54.5055 79.2166C57.9825 77.0153 60.207 73.5323 60.207 69.296H50.207C50.207 69.6677 50.1275 70.1527 49.1565 70.7674C48.0097 71.4935 45.7566 72.232 42.023 72.232V82.232ZM60.207 69.296C60.207 66.1903 59.1018 63.5312 57.1693 61.3997C55.3694 59.4144 53.0111 58.0579 50.6887 57.0287C46.217 55.0471 39.8806 53.4952 33.8467 51.703L30.9993 61.289C37.8934 63.3368 42.949 64.5369 46.6373 66.1713C48.3949 66.9501 49.3086 67.6176 49.7607 68.1163C50.0803 68.4688 50.207 68.7537 50.207 69.296H60.207ZM33.8275 51.6973C26.0805 49.4299 19.494 46.8023 14.878 43.0714C10.5224 39.5509 7.855 35.0145 7.855 28.208H-2.145C-2.145 38.2975 2.09964 45.6011 8.59198 50.8486C14.824 55.8857 23.0215 58.9541 31.0185 61.2947L33.8275 51.6973ZM7.855 28.208C7.855 19.7318 11.0609 14.3741 15.9902 10.9311C21.193 7.29693 28.8653 5.432 38.183 5.432V-4.568C27.7887 -4.568 17.797 -2.52893 10.2638 2.73294C2.45705 8.18592 -2.145 16.7162 -2.145 28.208H7.855ZM38.183 5.432C48.0441 5.432 56.4715 8.03547 62.3777 12.4039C68.1825 16.6973 71.7061 22.777 71.97 30.4283L81.964 30.0837C81.5879 19.1749 76.4075 10.3427 68.3243 4.36408C60.3425 -1.53947 49.6979 -4.568 38.183 -4.568V5.432ZM76.967 25.256H53.927V35.256H76.967V25.256ZM58.873 29.5233C58.1623 24.726 55.694 20.7476 51.8454 18.0604C48.0906 15.4387 43.3306 14.248 38.183 14.248V24.248C41.8674 24.248 44.4674 25.1053 46.1206 26.2596C47.68 27.3484 48.6677 28.874 48.981 30.9887L58.873 29.5233ZM38.183 14.248C34.3303 14.248 30.3201 14.8343 27.0841 16.5695C23.5771 18.4501 20.895 21.8001 20.895 26.544H30.895C30.895 26.1873 30.9734 26.0626 31.0116 26.005C31.0735 25.9115 31.2692 25.6724 31.8099 25.3824C32.9899 24.7497 35.1238 24.248 38.183 24.248V14.248ZM20.895 26.544C20.895 28.8811 21.518 31.0887 22.9036 33.0324C24.224 34.8847 26.0148 36.1843 27.843 37.1696C31.3276 39.0473 36.2768 40.4411 41.8368 41.9856L44.5132 32.3504C38.5532 30.6948 34.8625 29.5927 32.587 28.3664C31.5352 27.7997 31.166 27.3953 31.0464 27.2276C30.992 27.1513 30.895 27.0229 30.895 26.544H20.895ZM126 94H121V99H126V94ZM126 21.296H131V16.296H126V21.296ZM99.376 21.296H94.376V26.296H99.376V21.296ZM99.376 2.48V-2.52H94.376V2.48H99.376ZM175.536 2.48H180.536V-2.52H175.536V2.48ZM175.536 21.296V26.296H180.536V21.296H175.536ZM149.04 21.296V16.296H144.04V21.296H149.04ZM149.04 94V99H154.04V94H149.04ZM131 94V21.296H121V94H131ZM126 16.296H99.376V26.296H126V16.296ZM104.376 21.296V2.48H94.376V21.296H104.376ZM99.376 7.48H175.536V-2.52H99.376V7.48ZM170.536 2.48V21.296H180.536V2.48H170.536ZM175.536 16.296H149.04V26.296H175.536V16.296ZM144.04 21.296V94H154.04V21.296H144.04ZM149.04 89H126V99H149.04V89ZM226.212 37.552H221.212V42.552H226.212V37.552ZM266.148 37.552H271.148V32.552H266.148V37.552ZM266.148 56.368V61.368H271.148V56.368H266.148ZM226.212 56.368V51.368H221.212V56.368H226.212ZM226.212 75.184H221.212V80.184H226.212V75.184ZM273.316 75.184H278.316V70.184H273.316V75.184ZM273.316 94V99H278.316V94H273.316ZM203.172 94H198.172V99H203.172V94ZM203.172 2.48V-2.52H198.172V2.48H203.172ZM272.548 2.48H277.548V-2.52H272.548V2.48ZM272.548 21.296V26.296H277.548V21.296H272.548ZM226.212 21.296V16.296H221.212V21.296H226.212ZM226.212 42.552H266.148V32.552H226.212V42.552ZM261.148 37.552V56.368H271.148V37.552H261.148ZM266.148 51.368H226.212V61.368H266.148V51.368ZM221.212 56.368V75.184H231.212V56.368H221.212ZM226.212 80.184H273.316V70.184H226.212V80.184ZM268.316 75.184V94H278.316V75.184H268.316ZM273.316 89H203.172V99H273.316V89ZM208.172 94V2.48H198.172V94H208.172ZM203.172 7.48H272.548V-2.52H203.172V7.48ZM267.548 2.48V21.296H277.548V2.48H267.548ZM272.548 16.296H226.212V26.296H272.548V16.296ZM221.212 21.296V37.552H231.212V21.296H221.212ZM325.787 41.392H320.787V46.392H325.787V41.392ZM362.523 41.392H367.523V36.392H362.523V41.392ZM362.523 60.208V65.208H367.523V60.208H362.523ZM325.787 60.208V55.208H320.787V60.208H325.787ZM325.787 94V99H330.787V94H325.787ZM302.747 94H297.747V99H302.747V94ZM302.747 2.48V-2.52H297.747V2.48H302.747ZM370.843 2.48H375.843V-2.52H370.843V2.48ZM370.843 21.296V26.296H375.843V21.296H370.843ZM325.787 21.296V16.296H320.787V21.296H325.787ZM325.787 46.392H362.523V36.392H325.787V46.392ZM357.523 41.392V60.208H367.523V41.392H357.523ZM362.523 55.208H325.787V65.208H362.523V55.208ZM320.787 60.208V94H330.787V60.208H320.787ZM325.787 89H302.747V99H325.787V89ZM307.747 94V2.48H297.747V94H307.747ZM302.747 7.48H370.843V-2.52H302.747V7.48ZM365.843 2.48V21.296H375.843V2.48H365.843ZM370.843 16.296H325.787V26.296H370.843V16.296ZM320.787 21.296V41.392H330.787V21.296H320.787ZM444.46 74.928L449.237 73.4531L448.149 69.928H444.46V74.928ZM413.1 74.928V69.928H409.411L408.322 73.4531L413.1 74.928ZM407.212 94V99H410.901L411.989 95.4749L407.212 94ZM384.172 94L379.471 92.2971L377.043 99H384.172V94ZM417.324 2.48V-2.52H413.817L412.623 0.777089L417.324 2.48ZM440.364 2.48L445.067 0.782905L443.875 -2.52H440.364V2.48ZM473.388 94V99H480.508L478.091 92.3029L473.388 94ZM450.348 94L445.57 95.4749L446.659 99H450.348V94ZM418.348 57.392L413.568 55.9254L411.584 62.392H418.348V57.392ZM439.34 57.392V62.392H446.104L444.12 55.9254L439.34 57.392ZM428.972 23.6L433.752 22.1334L432.668 18.6H428.972V23.6ZM428.716 23.6V18.6H425.02L423.936 22.1334L428.716 23.6ZM444.46 69.928H413.1V79.928H444.46V69.928ZM408.322 73.4531L402.434 92.5251L411.989 95.4749L417.877 76.4029L408.322 73.4531ZM407.212 89H384.172V99H407.212V89ZM388.873 95.7029L422.025 4.1829L412.623 0.777089L379.471 92.2971L388.873 95.7029ZM417.324 7.48H440.364V-2.52H417.324V7.48ZM435.661 4.17709L468.685 95.6971L478.091 92.3029L445.067 0.782905L435.661 4.17709ZM473.388 89H450.348V99H473.388V89ZM455.125 92.5251L449.237 73.4531L439.682 76.4029L445.57 95.4749L455.125 92.5251ZM418.348 62.392H439.34V52.392H418.348V62.392ZM444.12 55.9254L433.752 22.1334L424.192 25.0666L434.56 58.8586L444.12 55.9254ZM428.972 18.6H428.716V28.6H428.972V18.6ZM423.936 22.1334L413.568 55.9254L423.128 58.8586L433.496 25.0666L423.936 22.1334ZM499.022 94H494.022V99H499.022V94ZM499.022 2.48V-2.52H494.022V2.48H499.022ZM522.062 2.48L526.372 -0.055105L524.922 -2.52H522.062V2.48ZM554.062 56.88L549.752 59.4151L551.202 61.88H554.062V56.88ZM554.318 56.88V61.88H559.318V56.88H554.318ZM554.318 2.48V-2.52H549.318V2.48H554.318ZM577.358 2.48H582.358V-2.52H577.358V2.48ZM577.358 94V99H582.358V94H577.358ZM554.318 94L550.008 96.5351L551.458 99H554.318V94ZM522.318 39.6L526.628 37.0649L525.178 34.6H522.318V39.6ZM522.062 39.6V34.6H517.062V39.6H522.062ZM522.062 94V99H527.062V94H522.062ZM504.022 94V2.48H494.022V94H504.022ZM499.022 7.48H522.062V-2.52H499.022V7.48ZM517.752 5.0151L549.752 59.4151L558.372 54.3449L526.372 -0.055105L517.752 5.0151ZM554.062 61.88H554.318V51.88H554.062V61.88ZM559.318 56.88V2.48H549.318V56.88H559.318ZM554.318 7.48H577.358V-2.52H554.318V7.48ZM572.358 2.48V94H582.358V2.48H572.358ZM577.358 89H554.318V99H577.358V89ZM558.628 91.4649L526.628 37.0649L518.008 42.1351L550.008 96.5351L558.628 91.4649ZM522.318 34.6H522.062V44.6H522.318V34.6ZM517.062 39.6V94H527.062V39.6H517.062ZM522.062 89H499.022V99H522.062V89Z" fill="#CDC1B0"/>
</svg>
