<svg width="724" height="97" viewBox="0 0 724 97" fill="none" xmlns="http://www.w3.org/2000/svg">
<path d="M0.446988 94H-4.55301V99H0.446988V94ZM0.446988 2.48V-2.52H-4.55301V2.48H0.446988ZM23.487 60.848V55.848H18.487V60.848H23.487ZM23.487 94V99H28.487V94H23.487ZM23.487 21.296V16.296H18.487V21.296H23.487ZM23.487 42.032H18.487V47.032H23.487V42.032ZM5.44699 94V2.48H-4.55301V94H5.44699ZM0.446988 7.48H44.863V-2.52H0.446988V7.48ZM44.863 7.48C53.5759 7.48 59.964 9.75759 64.1309 13.5637C68.227 17.3052 70.839 23.1288 70.839 31.664H80.839C80.839 20.9992 77.499 12.2308 70.8751 6.18028C64.3219 0.194399 55.2221 -2.52 44.863 -2.52V7.48ZM70.839 31.664C70.839 40.1992 68.227 46.0228 64.1309 49.7643C59.964 53.5704 53.5759 55.848 44.863 55.848V65.848C55.2221 65.848 64.3219 63.1336 70.8751 57.1477C77.499 51.0972 80.839 42.3288 80.839 31.664H70.839ZM44.863 55.848H23.487V65.848H44.863V55.848ZM18.487 60.848V94H28.487V60.848H18.487ZM23.487 89H0.446988V99H23.487V89ZM18.487 21.296V42.032H28.487V21.296H18.487ZM23.487 47.032H39.999V37.032H23.487V47.032ZM39.999 47.032C44.3562 47.032 48.8575 46.328 52.3469 43.7489C56.1504 40.9377 57.799 36.6451 57.799 31.664H47.799C47.799 34.3629 47.0156 35.2543 46.403 35.7071C45.4765 36.392 43.5777 37.032 39.999 37.032V47.032ZM57.799 31.664C57.799 26.6829 56.1504 22.3903 52.3469 19.5791C48.8575 17 44.3562 16.296 39.999 16.296V26.296C43.5777 26.296 45.4765 26.936 46.403 27.6209C47.0156 28.0737 47.799 28.9651 47.799 31.664H57.799ZM39.999 16.296H23.487V26.296H39.999V16.296ZM145.997 91.048C132.699 91.048 122.785 86.4613 116.154 79.1267C109.462 71.7254 105.685 61.0459 105.685 48.176H95.685C95.685 62.9541 100.036 76.2106 108.736 85.8333C117.497 95.5227 130.239 101.048 145.997 101.048V91.048ZM105.685 48.176C105.685 35.3755 109.459 24.7281 116.151 17.3408C122.783 10.0191 132.698 5.432 145.997 5.432V-4.568C130.24 -4.568 117.499 0.956948 108.739 10.6272C100.039 20.2319 95.685 33.4565 95.685 48.176H105.685ZM145.997 5.432C159.157 5.432 169.082 10.0126 175.754 17.3484C182.482 24.7449 186.309 35.3951 186.309 48.176H196.309C196.309 33.4369 191.88 20.2151 183.152 10.6196C174.368 0.963371 161.637 -4.568 145.997 -4.568V5.432ZM186.309 48.176C186.309 61.0263 182.479 71.7086 175.751 79.1191C169.079 86.4678 159.157 91.048 145.997 91.048V101.048C161.637 101.048 174.371 95.5162 183.155 85.8409C191.883 76.2274 196.309 62.9737 196.309 48.176H186.309ZM145.997 82.232C155.855 82.232 163.053 78.2395 167.541 71.4658C171.808 65.0262 173.269 56.6187 173.269 48.176H163.269C163.269 55.7333 161.914 61.8538 159.205 65.9422C156.717 69.6965 152.779 72.232 145.997 72.232V82.232ZM173.269 48.176C173.269 39.7913 171.806 31.4152 167.537 24.9924C163.049 18.239 155.854 14.248 145.997 14.248V24.248C152.78 24.248 156.721 26.7849 159.209 30.5276C161.916 34.6008 163.269 40.6887 163.269 48.176H173.269ZM145.997 14.248C136.088 14.248 128.882 18.2309 124.403 25.0012C120.15 31.4299 118.725 39.8095 118.725 48.176H128.725C128.725 40.6705 130.052 34.5861 132.743 30.5188C135.208 26.793 139.138 24.248 145.997 24.248V14.248ZM118.725 48.176C118.725 56.6006 120.148 65.0116 124.399 71.457C128.878 78.2476 136.086 82.232 145.997 82.232V72.232C139.14 72.232 135.212 69.6883 132.747 65.951C130.054 61.8684 128.725 55.7514 128.725 48.176H118.725ZM219.347 94H214.347V99H219.347V94ZM219.347 2.48V-2.52H214.347V2.48H219.347ZM242.387 60.848V55.848H237.387V60.848H242.387ZM242.387 94V99H247.387V94H242.387ZM242.387 21.296V16.296H237.387V21.296H242.387ZM242.387 42.032H237.387V47.032H242.387V42.032ZM224.347 94V2.48H214.347V94H224.347ZM219.347 7.48H263.763V-2.52H219.347V7.48ZM263.763 7.48C272.476 7.48 278.864 9.75759 283.031 13.5637C287.127 17.3052 289.739 23.1288 289.739 31.664H299.739C299.739 20.9992 296.399 12.2308 289.775 6.18028C283.222 0.194399 274.122 -2.52 263.763 -2.52V7.48ZM289.739 31.664C289.739 40.1992 287.127 46.0228 283.031 49.7643C278.864 53.5704 272.476 55.848 263.763 55.848V65.848C274.122 65.848 283.222 63.1336 289.775 57.1477C296.399 51.0972 299.739 42.3288 299.739 31.664H289.739ZM263.763 55.848H242.387V65.848H263.763V55.848ZM237.387 60.848V94H247.387V60.848H237.387ZM242.387 89H219.347V99H242.387V89ZM237.387 21.296V42.032H247.387V21.296H237.387ZM242.387 47.032H258.899V37.032H242.387V47.032ZM258.899 47.032C263.256 47.032 267.758 46.328 271.247 43.7489C275.05 40.9377 276.699 36.6451 276.699 31.664H266.699C266.699 34.3629 265.916 35.2543 265.303 35.7071C264.376 36.392 262.478 37.032 258.899 37.032V47.032ZM276.699 31.664C276.699 26.6829 275.05 22.3903 271.247 19.5791C267.758 17 263.256 16.296 258.899 16.296V26.296C262.478 26.296 264.376 26.936 265.303 27.6209C265.916 28.0737 266.699 28.9651 266.699 31.664H276.699ZM258.899 16.296H242.387V26.296H258.899V16.296ZM364.897 91.048C351.599 91.048 341.685 86.4613 335.054 79.1267C328.362 71.7254 324.585 61.0459 324.585 48.176H314.585C314.585 62.9541 318.936 76.2106 327.636 85.8333C336.397 95.5227 349.139 101.048 364.897 101.048V91.048ZM324.585 48.176C324.585 35.3755 328.359 24.7281 335.051 17.3408C341.683 10.0191 351.598 5.432 364.897 5.432V-4.568C349.14 -4.568 336.399 0.956948 327.639 10.6272C318.939 20.2319 314.585 33.4565 314.585 48.176H324.585ZM364.897 5.432C378.057 5.432 387.982 10.0126 394.654 17.3484C401.382 24.7449 405.209 35.3951 405.209 48.176H415.209C415.209 33.4369 410.78 20.2151 402.052 10.6196C393.268 0.963371 380.537 -4.568 364.897 -4.568V5.432ZM405.209 48.176C405.209 61.0263 401.379 71.7086 394.651 79.1191C387.979 86.4678 378.057 91.048 364.897 91.048V101.048C380.537 101.048 393.271 95.5162 402.055 85.8409C410.783 76.2274 415.209 62.9737 415.209 48.176H405.209ZM364.897 82.232C374.755 82.232 381.953 78.2395 386.441 71.4658C390.708 65.0262 392.169 56.6187 392.169 48.176H382.169C382.169 55.7333 380.814 61.8538 378.105 65.9422C375.617 69.6965 371.679 72.232 364.897 72.232V82.232ZM392.169 48.176C392.169 39.7913 390.706 31.4152 386.437 24.9924C381.949 18.239 374.754 14.248 364.897 14.248V24.248C371.68 24.248 375.621 26.7849 378.109 30.5276C380.816 34.6008 382.169 40.6887 382.169 48.176H392.169ZM364.897 14.248C354.988 14.248 347.782 18.2309 343.303 25.0012C339.05 31.4299 337.625 39.8095 337.625 48.176H347.625C347.625 40.6705 348.952 34.5861 351.643 30.5188C354.108 26.793 358.038 24.248 364.897 24.248V14.248ZM337.625 48.176C337.625 56.6006 339.048 65.0116 343.299 71.457C347.778 78.2476 354.986 82.232 364.897 82.232V72.232C358.04 72.232 354.112 69.6883 351.647 65.951C348.954 61.8684 347.625 55.7514 347.625 48.176H337.625ZM427.219 2.48V-2.52H420.34L422.463 4.02317L427.219 2.48ZM451.667 2.48L456.495 1.17909L455.498 -2.52H451.667V2.48ZM468.947 66.608L464.119 67.9089L465.116 71.608H468.947V66.608ZM469.203 66.608V71.608H473.027L474.028 67.9179L469.203 66.608ZM486.611 2.48V-2.52H482.787L481.786 1.17011L486.611 2.48ZM510.931 2.48L515.687 4.02317L517.81 -2.52H510.931V2.48ZM481.235 94V99H484.869L485.991 95.5432L481.235 94ZM456.915 94L452.159 95.5432L453.281 99H456.915V94ZM427.219 7.48H451.667V-2.52H427.219V7.48ZM446.839 3.7809L464.119 67.9089L473.775 65.3071L456.495 1.17909L446.839 3.7809ZM468.947 71.608H469.203V61.608H468.947V71.608ZM474.028 67.9179L491.436 3.78988L481.786 1.17011L464.378 65.2981L474.028 67.9179ZM486.611 7.48H510.931V-2.52H486.611V7.48ZM506.175 0.936822L476.479 92.4568L485.991 95.5432L515.687 4.02317L506.175 0.936822ZM481.235 89H456.915V99H481.235V89ZM461.671 92.4568L431.975 0.936822L422.463 4.02317L452.159 95.5432L461.671 92.4568ZM536.45 2.48V-2.52H531.45V2.48H536.45ZM559.49 2.48H564.49V-2.52H559.49V2.48ZM559.49 94V99H564.49V94H559.49ZM536.45 94H531.45V99H536.45V94ZM536.45 7.48H559.49V-2.52H536.45V7.48ZM554.49 2.48V94H564.49V2.48H554.49ZM559.49 89H536.45V99H559.49V89ZM541.45 94V2.48H531.45V94H541.45ZM650.009 36.528L645.077 37.35L645.773 41.528H650.009V36.528ZM650.009 59.696V54.696H645.703L645.064 58.9543L650.009 59.696ZM673.049 59.696L678.026 60.17L678.548 54.696H673.049V59.696ZM673.049 36.528V41.528H678.587L678.023 36.0186L673.049 36.528ZM654.941 35.706C654.036 30.2772 652.227 24.8311 648.377 20.7243C644.366 16.4458 638.742 14.248 631.577 14.248V24.248C636.572 24.248 639.332 25.6982 641.081 27.5637C642.991 29.6009 644.318 32.7948 645.077 37.35L654.941 35.706ZM631.577 14.248C622.423 14.248 615.642 17.9291 611.451 24.6276C607.521 30.9073 606.225 39.2771 606.225 48.176H616.225C616.225 39.9229 617.489 33.8287 619.927 29.9324C622.104 26.4549 625.499 24.248 631.577 24.248V14.248ZM606.225 48.176C606.225 57.1338 607.519 65.5347 611.447 71.8304C615.638 78.5492 622.421 82.232 631.577 82.232V72.232C625.501 72.232 622.108 70.0268 619.931 66.5376C617.491 62.6253 616.225 56.4982 616.225 48.176H606.225ZM631.577 82.232C638.787 82.232 644.464 80.0447 648.49 75.7048C652.356 71.5389 654.119 65.9997 654.954 60.4377L645.064 58.9543C644.363 63.6323 643.054 66.8611 641.16 68.9032C639.426 70.7713 636.655 72.232 631.577 72.232V82.232ZM650.009 64.696H673.049V54.696H650.009V64.696ZM668.072 59.222C667.133 69.0792 663.666 76.9347 658.017 82.3153C652.403 87.662 644.127 91.048 632.601 91.048V101.048C646.163 101.048 657.087 97.01 664.913 89.5567C672.704 82.1373 676.917 71.8168 678.026 60.17L668.072 59.222ZM632.601 91.048C619.382 91.048 609.718 86.474 603.299 79.1775C596.804 71.7939 593.185 61.1059 593.185 48.176H583.185C583.185 62.8941 587.31 76.1421 595.791 85.7825C604.348 95.51 616.892 101.048 632.601 101.048V91.048ZM593.185 48.176C593.185 35.3153 596.801 24.6595 603.296 17.29C609.716 10.0064 619.382 5.432 632.601 5.432V-4.568C616.892 -4.568 604.35 0.969621 595.794 10.678C587.313 20.3005 583.185 33.5167 583.185 48.176H593.185ZM632.601 5.432C644.055 5.432 652.308 8.81366 657.93 14.1413C663.589 19.5038 667.079 27.3096 668.075 37.0374L678.023 36.0186C676.843 24.4984 672.589 14.2562 664.808 6.88269C656.99 -0.525664 646.107 -4.568 632.601 -4.568V5.432ZM673.049 31.528H650.009V41.528H673.049V31.528ZM700.475 2.48V-2.52H695.475V2.48H700.475ZM723.515 2.48H728.515V-2.52H723.515V2.48ZM723.515 94V99H728.515V94H723.515ZM700.475 94H695.475V99H700.475V94ZM700.475 7.48H723.515V-2.52H700.475V7.48ZM718.515 2.48V94H728.515V2.48H718.515ZM723.515 89H700.475V99H723.515V89ZM705.475 94V2.48H695.475V94H705.475Z" fill="#CDC1B0"/>
</svg>
